PathFileType	4	(X/Y/Z)	C:\Users\Basilio\Documents\Thesis Gigler\squatting_fais\c3dfiles\075\SLS_front_pre1\markers_experimental.trc
DataRate	CameraRate	NumFrames	NumMarkers	Units	OrigDataRate	OrigDataStartFrame	OrigNumFrames
200.000000	200.000000	4	61	mm	200.000000	780	1249
Frame#	Time	FHD			LBHD			C7			T10			CLAV			LSHO			LUUPA			LMUPA			LDUPA			LLEP			LMEP			LUL			LRFIN			RSHO			RUPA1			RMUPA			RDUPA			RLEP			RMEP			RRAD			RUL			RUFIN			LASI			RASI			USACR			LSACR			RSACR			LTHI1			LTHI2			LTHI3			LTHI4			LLFC			LMFC			LTIB1			LTIB2			LTIB3			LTIB4			LLMAL			LMMAL			LHEE			LMT1			LMT2			LMT5			RTHI			RTHI2			RTHI3			RTHI4			RLFC			RMFC			RTIB1			RTIB2			RTIB3			RTIB4			RLMAL			RMMAL			RHEE			RMT1			RMT2			RMT5			LRAD			RBHD			
		X1	Y1	Z1	X2	Y2	Z2	X3	Y3	Z3	X4	Y4	Z4	X5	Y5	Z5	X6	Y6	Z6	X7	Y7	Z7	X8	Y8	Z8	X9	Y9	Z9	X10	Y10	Z10	X11	Y11	Z11	X12	Y12	Z12	X13	Y13	Z13	X14	Y14	Z14	X15	Y15	Z15	X16	Y16	Z16	X17	Y17	Z17	X18	Y18	Z18	X19	Y19	Z19	X20	Y20	Z20	X21	Y21	Z21	X22	Y22	Z22	X23	Y23	Z23	X24	Y24	Z24	X25	Y25	Z25	X26	Y26	Z26	X27	Y27	Z27	X28	Y28	Z28	X29	Y29	Z29	X30	Y30	Z30	X31	Y31	Z31	X32	Y32	Z32	X33	Y33	Z33	X34	Y34	Z34	X35	Y35	Z35	X36	Y36	Z36	X37	Y37	Z37	X38	Y38	Z38	X39	Y39	Z39	X40	Y40	Z40	X41	Y41	Z41	X42	Y42	Z42	X43	Y43	Z43	X44	Y44	Z44	X45	Y45	Z45	X46	Y46	Z46	X47	Y47	Z47	X48	Y48	Z48	X49	Y49	Z49	X50	Y50	Z50	X51	Y51	Z51	X52	Y52	Z52	X53	Y53	Z53	X54	Y54	Z54	X55	Y55	Z55	X56	Y56	Z56	X57	Y57	Z57	X58	Y58	Z58	X59	Y59	Z59	X60	Y60	Z60	X61	Y61	Z61	

781	3.9	-223.7192382812501	1498.92138671875	-813.7165527343752	-373.0717773437501	1394.235229492188	-893.5681762695315	-429.2422790527345	1305.406860351563	-825.1582031250002	-569.2645263671876	1016.649841308594	-792.1926269531252	-315.7316894531251	1206.768188476563	-803.503112792969	-318.3735961914063	1254.686401367188	-938.4749145507815	-163.0137023925782	1187.678466796875	-1010.170715332031	-141.7102203369141	1207.142211914063	-969.2028808593752	-94.56660461425783	1180.215454101563	-996.764587402344	-15.44250965118409	1171.5498046875	-974.2363891601565	-35.09179687500001	1101.873901367188	-930.3063964843752	217.1226654052735	1197.296508789063	-860.678405761719	214.6693572998047	1225.360473632813	-757.3146362304689	-343.5198974609376	1275.036254882813	-680.5479736328126	-219.2914123535157	1238.0654296875	-554.0290527343751	-183.58154296875	1243.811401367188	-587.4747924804689	-151.1416931152344	1229.483276367188	-538.3594970703126	-79.70236206054689	1222.161865234375	-536.2698364257814	-72.74267578125001	1144.134033203125	-540.4215698242189	139.9303741455078	1208.036499023438	-701.8348999023439	159.6986846923828	1233.869262695313	-634.7073974609376	212.310287475586	1248.95947265625	-733.0570068359376	-451.5529785156251	832.750671386719	-926.511169433594	-437.9625549316407	825.070495605469	-677.3815307617189	-598.3339233398439	889.4949951171877	-798.335876464844	-608.0234375000001	858.9305419921877	-825.3771972656252	-605.8711547851564	857.773864746094	-769.4459228515627	-368.4252929687501	659.5454711914064	-1018.875	-287.9745483398438	635.4476318359376	-1023.489990234375	-261.7484741210938	672.5106811523439	-1002.799987792969	-262.3785705566407	581.0624389648439	-1020.971069335938	-191.8972473144532	498.9127502441407	-1014.990905761719	-146.1931610107422	517.3484497070314	-895.6212158203127	-72.36412048339845	433.8087158203126	-987.9444580078127	-104.4302520751953	366.2259216308594	-1031.1875	-65.13069152832033	383.4289245605469	-1015.099731445313	-22.37548255920411	315.5653991699219	-984.0918579101565	-9.269973754882814	152.7548065185547	-995.920349121094	12.54067134857178	188.2669982910157	-916.2589111328127	-49.79417037963869	112.998161315918	-947.0086059570315	153.5995025634766	161.6938629150391	-918.2408447265627	159.704330444336	154.6900787353516	-967.453796386719	130.7117919921875	112.6221542358399	-1009.142578125	-407.121795654297	641.9524536132814	-621.8200683593751	-342.3080749511719	628.5444946289064	-625.0220947265626	-322.4732971191407	654.6857910156251	-634.4959106445314	-308.1308898925782	552.1078491210939	-635.0825195312501	-230.3378906250001	434.6313781738282	-679.0203857421876	-205.9060516357422	453.6575012207032	-799.830749511719	-213.7893981933594	304.7161560058594	-771.5760498046877	-286.1437072753907	240.3493652343751	-723.0606689453126	-254.9157714843751	228.8287353515626	-758.5364990234376	-284.7410583496094	200.8434600830079	-802.362976074219	-391.570770263672	106.3500289916992	-774.3734130859377	-356.1734619140626	135.3538360595703	-855.0167236328127	-446.876922607422	91.5193557739258	-837.5813598632815	-243.3390655517579	54.33869934082033	-825.2703857421877	-247.6110534667969	58.24631881713869	-783.4274902343752	-289.9026794433594	36.98791503906251	-735.9499511718751	nan	nan	nan	-348.1135253906251	1434.88525390625	-739.1361083984376	
782	3.905	-224.3012695312501	1500.87451171875	-813.648620605469	-373.6881713867188	1396.01416015625	-893.3618164062502	-429.1592407226564	1307.223022460938	-824.957458496094	-568.9608154296876	1018.37890625	-792.0250244140627	-315.9890441894532	1208.913330078125	-803.4995727539065	-318.6609802246094	1256.791625976563	-938.608093261719	-164.0218505859375	1190.14794921875	-1010.605529785156	-141.8834381103516	1209.291625976563	-969.2713012695315	-95.2252883911133	1182.592163085938	-997.022888183594	-15.55717658996582	1174.025512695313	-974.5071411132815	-35.19689559936524	1104.122436523438	-930.371276855469	216.7563629150391	1199.901733398438	-861.063903808594	214.3545227050782	1228.006958007813	-757.6657714843751	-343.6943969726563	1277.08154296875	-680.4401855468751	-219.3364562988282	1240.221069335938	-554.0323486328126	-183.75927734375	1245.811889648438	-587.4680786132814	-151.1833648681641	1231.61279296875	-538.4245605468751	-79.80025482177736	1224.453247070313	-536.5178222656251	-72.74095916748048	1146.333862304688	-540.5800781250001	140.086181640625	1210.325439453125	-701.5287475585939	159.6006317138672	1236.422607421875	-634.8797607421876	212.1036224365235	1251.623168945313	-733.3513793945314	-451.0838012695314	834.2429809570315	-926.3847656250002	-437.6057434082032	826.834899902344	-677.1912841796876	-598.1348876953126	891.1032714843752	-798.2307739257815	-607.8150634765626	860.7469482421877	-825.1267700195315	-605.5343627929689	859.4259033203127	-769.318786621094	-368.3244628906251	661.2095336914064	-1018.679809570313	-287.8746643066407	636.9088134765626	-1023.473022460938	-261.6076354980469	674.1386108398439	-1002.724548339844	-262.2273864746094	582.3593750000001	-1020.9990234375	-192.1600494384766	500.2162170410157	-1014.975158691406	-146.1906127929688	518.6134033203126	-895.5512695312502	-72.51159667968751	434.9367675781251	-987.9473876953127	-104.9400939941407	367.6218872070313	-1031.214111328125	-65.2768020629883	384.5118408203126	-1015.066589355469	-22.79181098937989	316.6901855468751	-984.1267700195315	-9.784650802612306	153.6277618408203	-995.8994140625002	12.11519622802735	189.3197326660157	-916.1788330078127	-50.53987503051759	114.0919036865235	-947.0364379882815	153.0140533447266	162.3429260253907	-918.3025512695315	159.0028686523438	155.4778442382813	-967.5980224609377	129.8269653320313	113.4107513427735	-1008.979431152344	-407.3067626953126	643.1437377929689	-621.5682983398439	-342.3892517089844	629.6455688476564	-624.7796630859376	-322.4987182617188	655.5910034179689	-634.2066040039064	-308.5124511718751	553.0036010742189	-634.9227905273439	-231.0838317871094	435.2396240234376	-678.8747558593751	-206.6615905761719	454.0797119140626	-799.680358886719	-214.2784576416016	305.1426086425782	-771.4395141601565	-286.5590515136719	240.5614166259766	-722.9703979492189	-255.8423004150391	229.3521118164063	-758.8716430664064	-284.9242858886719	201.0738525390626	-802.1536254882815	-391.6402587890626	106.356689453125	-774.3410644531252	-356.3000793457032	135.3348083496094	-854.9185791015627	-446.8331604003907	91.43003845214845	-837.539245605469	-243.4102325439454	54.38646316528322	-825.2985839843752	-247.6087493896485	58.25166320800783	-783.4206542968752	-289.9142456054688	37.02416992187501	-735.9335327148439	nan	nan	nan	-348.5860290527344	1436.872314453125	-738.8801269531251	
783	3.91	-224.7394561767579	1503.034301757813	-813.5136718750002	-374.1635437011719	1398.078857421875	-893.3518676757815	-429.4408264160157	1309.0517578125	-824.822937011719	-568.7906494140626	1019.955993652344	-791.9307250976565	-316.1716613769532	1210.951293945313	-803.5413818359377	-318.9245300292969	1258.802612304688	-938.493347167969	-163.499740600586	1192.210083007813	-1010.503662109375	-142.1250762939453	1211.617309570313	-969.3905029296877	-95.06225585937501	1184.84228515625	-997.1350097656252	-16.05810737609864	1176.395141601563	-974.7895507812502	-35.3608741760254	1106.556274414063	-930.516296386719	216.6280670166016	1202.540283203125	-861.3168945312502	214.2424316406251	1230.6044921875	-758.0120239257814	-343.8991394042969	1279.005126953125	-680.3892822265626	-219.4055938720704	1242.226318359375	-553.9645996093751	-183.8555908203125	1247.966186523438	-587.4994506835939	-151.28662109375	1233.775390625	-538.4769287109376	-79.89519500732423	1226.591064453125	-536.6401977539064	-72.65670013427736	1148.545288085938	-540.7734375000001	139.959228515625	1212.877075195313	-701.7791748046876	159.3721313476563	1238.930297851563	-635.2401733398439	211.9517974853516	1254.295166015625	-733.7068481445314	-450.7488403320314	836.029235839844	-926.1818847656252	-437.3263549804689	828.332214355469	-677.0897827148439	-597.7789916992189	892.7979125976565	-797.9482421875002	-607.4465942382814	862.5633544921877	-824.9734497070315	-605.1661376953126	861.185241699219	-769.1007080078127	-368.2256164550782	662.7312011718751	-1018.518737792969	-287.7060546875001	638.4097290039064	-1023.314453125	-261.3258666992188	675.4757080078126	-1002.622009277344	-262.3471069335938	584.0325317382814	-1020.881958007813	-191.8802185058594	501.6150817871095	-1014.763000488281	-146.1386260986328	519.9620361328126	-895.517028808594	-72.85157775878908	436.2827453613282	-988.0596313476565	-105.0921859741211	368.7002563476563	-1031.233276367188	-65.58925628662111	385.8878479003907	-1015.114868164063	-22.652738571167	317.7126159667969	-983.6931762695315	-10.43517208099365	154.7691192626953	-995.9371337890627	11.47220039367676	190.2375793457032	-916.3824462890627	-51.25352859497072	115.2708282470703	-946.9663696289065	152.5030670166016	163.2309722900391	-918.457702636719	158.2943420410157	156.2598114013672	-967.7445068359377	128.9003143310547	114.3530502319336	-1009.230285644531	-407.3506164550782	644.5402832031251	-621.4235229492189	-342.4514160156251	630.6931762695314	-624.6114501953126	-322.5380554199219	656.4234619140626	-633.9826049804689	-308.8507385253907	553.9500122070314	-634.8204345703126	-232.0171508789063	435.6672363281251	-678.7334594726564	-207.4185485839844	454.6097717285157	-799.5634765625002	-214.6734466552735	305.5767517089844	-771.2236328125002	-287.1765747070313	240.8966369628907	-722.7215576171876	-255.6774597167969	229.4336242675782	-757.8812255859376	-285.2162170410157	201.2291412353516	-802.0814208984377	-391.6370849609376	106.3568496704102	-774.267517089844	-356.3106994628907	135.3188629150391	-854.7955322265627	-446.9391479492189	91.50521087646486	-837.5167236328127	-243.4489288330079	54.32695770263673	-825.3487548828127	-247.6576385498047	58.2602005004883	-783.3894653320315	-289.9116821289063	36.97533035278321	-735.9337768554689	nan	nan	nan	-349.0458068847657	1438.825805664063	-738.5449218750001	
784	3.915	-225.1876373291016	1505.145141601563	-813.380065917969	-374.6602478027344	1400.213134765625	-893.2177734375002	-429.7559814453126	1310.918701171875	-824.6821289062502	-568.6500244140626	1021.604736328125	-791.8211669921877	-316.3688659667969	1212.765991210938	-803.4151000976565	-319.3279724121094	1260.862060546875	-938.4287109375002	-163.7555389404297	1194.538208007813	-1010.600830078125	-142.551498413086	1213.853393554688	-969.461120605469	-95.6864471435547	1187.300170898438	-997.3819580078127	-16.02393341064453	1178.824096679688	-975.0019531250002	-35.54858779907227	1108.942749023438	-930.7670898437502	216.2732849121094	1205.23388671875	-861.6906738281252	213.9225769042969	1233.175659179688	-758.3161621093751	-344.0238952636719	1280.985595703125	-680.2150268554689	-219.5651245117188	1244.086181640625	-554.1446533203126	-184.009506225586	1250.061157226563	-587.7192382812501	-151.4846343994141	1235.918701171875	-538.6821899414064	-79.83109283447267	1228.8271484375	-536.6931152343751	-72.63258361816408	1150.76171875	-540.9037475585939	139.5632629394532	1215.485107421875	-702.5647583007814	159.3518829345703	1241.552978515625	-635.4349365234376	211.8364715576172	1256.82275390625	-734.0066528320314	-450.4330139160157	837.8970947265627	-926.0613403320315	-437.0976867675782	830.1203613281252	-677.0860595703126	-597.3253173828126	894.6641845703127	-797.6762695312502	-607.0969238281251	864.1760864257815	-824.841491699219	-604.8609008789064	862.944763183594	-768.9675903320315	-368.0175781250001	664.3159790039064	-1018.518737792969	-287.5385131835938	639.9064331054689	-1023.368286132813	-261.1878356933594	676.9073486328126	-1002.525512695313	-262.2952880859376	585.3746337890626	-1020.820373535156	-191.5581359863282	502.780242919922	-1014.830871582031	-146.0162506103516	521.1838989257814	-895.1441040039065	-72.72470092773439	437.4945678710939	-987.9802856445315	-105.7285842895508	370.1338195800782	-1031.132568359375	-65.70376586914064	387.0910034179689	-1015.093566894531	-23.04381752014161	318.9543762207032	-983.876159667969	-11.8541784286499	156.0978088378907	-996.122497558594	11.00482559204102	191.3629150390625	-916.3694458007815	-51.5461883544922	116.3204193115235	-946.939636230469	151.6937561035157	163.9392700195313	-918.5759277343752	157.7364959716797	157.0345458984375	-967.8109130859377	128.2649536132813	115.1510086059571	-1009.318420410156	-407.3988342285157	645.8836669921876	-621.2921752929689	-342.6713256835938	631.6822509765626	-624.4851684570314	-322.5914916992188	657.3077392578126	-633.8958740234376	-309.4059448242188	554.7075195312501	-634.6974487304689	-233.0243072509766	436.0135498046876	-678.7213134765626	-208.0538330078126	455.0211791992189	-799.5323486328127	-215.6777038574219	306.1239929199219	-771.1130371093752	-287.5670776367188	241.1518859863282	-722.6082153320314	-256.0846557617188	229.6570739746094	-757.7116699218751	-285.5086669921876	201.4840087890626	-801.974060058594	-391.6762695312501	106.3046340942383	-774.2498779296877	-357.1370849609376	135.52880859375	-854.914245605469	-446.9312438964845	91.48320770263673	-837.5157470703127	-243.4468994140626	54.38859939575197	-825.2808837890627	-247.6670837402344	58.27668762207033	-783.364440917969	-290.0020446777344	36.92683410644532	-735.9285278320314	nan	nan	nan	-349.5214538574219	1440.781127929688	-738.1345825195314	
